{"accessors" : [{"bufferView" : 0, "byteOffset" : 0, "componentType" : 5123, "count" : 2880, "type" : "SCALAR", "max" : [2431], "min" : [0]}, {"bufferView" : 1, "byteOffset" : 0, "componentType" : 5126, "count" : 2432, "type" : "VEC3", "max" : [0.9999997019767761, 1, 0.9999994039535522], "min" : [-0.9999990463256836, -1, -0.9999987483024597], "name" : "POSITION"}, {"bufferView" : 1, "byteOffset" : 12, "componentType" : 5126, "count" : 2432, "type" : "VEC3", "max" : [0.9904427528381348, 0.9951428771018982, 0.9904428124427795], "min" : [-0.9904428720474243, -0.9951428771018982, -0.9904432892799377], "name" : "NORMAL"}, {"bufferView" : 1, "byteOffset" : 24, "componentType" : 5126, "count" : 2432, "type" : "VEC2", "max" : [1.0000001192092896, 1], "min" : [0, 0], "name" : "TEXCOORD_0"}, {"bufferView" : 0, "byteOffset" : 5760, "componentType" : 5123, "count" : 2880, "type" : "SCALAR", "max" : [2431], "min" : [0]}, {"bufferView" : 2, "byteOffset" : 0, "componentType" : 5126, "count" : 2432, "type" : "VEC3", "max" : [0.9999997019767761, 1, 0.9999994039535522], "min" : [-0.9999990463256836, -1, -0.9999987483024597], "name" : "POSITION"}, {"bufferView" : 2, "byteOffset" : 12, "componentType" : 5126, "count" : 2432, "type" : "VEC3", "max" : [0.9904427528381348, 0.9951428771018982, 0.9904428124427795], "min" : [-0.9904428720474243, -0.9951428771018982, -0.9904432892799377], "name" : "NORMAL"}, {"bufferView" : 2, "byteOffset" : 24, "componentType" : 5126, "count" : 2432, "type" : "VEC2", "max" : [1.0000001192092896, 1], "min" : [0, 0], "name" : "TEXCOORD_0"}, {"bufferView" : 0, "byteOffset" : 11520, "componentType" : 5123, "count" : 513, "type" : "SCALAR", "max" : [446], "min" : [0]}, {"bufferView" : 3, "byteOffset" : 0, "componentType" : 5126, "count" : 447, "type" : "VEC3", "max" : [1.915000081062317, 0, 0.009000000543892384], "min" : [0.017000000923871994, 0, -0.6820000410079956], "name" : "POSITION"}, {"bufferView" : 3, "byteOffset" : 12, "componentType" : 5126, "count" : 447, "type" : "VEC3", "max" : [0, 1.0000044107437134, -0], "min" : [0, 1.0000042915344238, -0], "name" : "NORMAL"}, {"bufferView" : 3, "byteOffset" : 24, "componentType" : 5126, "count" : 447, "type" : "VEC2", "max" : [1, 1], "min" : [0, 1], "name" : "TEXCOORD_0"}], "asset" : {"generator" : "Aspose.3D 22.7", "version" : "2.0"}, "buffers" : [{"uri" : "data:application/octet-stream;base64,", "byteLength" : 213300}], "bufferViews" : [{"buffer" : 0, "byteOffset" : 0, "byteLength" : 12548, "target" : 34963}, {"buffer" : 0, "byteOffset" : 12552, "byteLength" : 92160, "byteStride" : 32, "target" : 34962}, {"buffer" : 0, "byteOffset" : 104716, "byteLength" : 92160, "byteStride" : 32, "target" : 34962}, {"buffer" : 0, "byteOffset" : 196880, "byteLength" : 16416, "byteStride" : 32, "target" : 34962}], "images" : [{"uri" : "data:image/jpeg;base64,"}, {"uri" : "data:image/jpeg;base64,"}], "materials" : [{"name" : "Material.001", "pbrMetallicRoughness" : {"baseColorFactor" : [1, 1, 1, 1], "baseColorTexture" : {"index" : 0, "texCoord" : 0}, "metallicFactor" : 0, "roughnessFactor" : 0.5}, "emissiveFactor" : [0, 0, 0], "alphaMode" : "OPAQUE", "doubleSided" : true}, {"name" : "Material.002", "pbrMetallicRoughness" : {"baseColorFactor" : [1, 1, 1, 1], "baseColorTexture" : {"index" : 1, "texCoord" : 0}, "metallicFactor" : 0, "roughnessFactor" : 0.5}, "emissiveFactor" : [0, 0, 0], "alphaMode" : "OPAQUE", "doubleSided" : true}], "meshes" : [{"primitives" : [{"attributes" : {"POSITION" : 1, "NORMAL" : 2, "TEXCOORD_0" : 3}, "indices" : 0, "material" : 0, "mode" : 4}]}, {"primitives" : [{"attributes" : {"POSITION" : 5, "NORMAL" : 6, "TEXCOORD_0" : 7}, "indices" : 4, "material" : 1, "mode" : 4}]}, {"primitives" : [{"attributes" : {"POSITION" : 9, "NORMAL" : 10, "TEXCOORD_0" : 11}, "indices" : 8, "mode" : 4}]}], "nodes" : [{"matrix" : [-0.3894853470369182, -0.09941929727190407, 2.801515214135028, 0, 0.8405970160887986, 2.6941269337729437, 0.21247364999427484, 0, -2.6742792586382467, 0.8613154612101028, -0.34123007711532366, 0, 3.4829354286193848, -6.832022666931152, 0.5350737571716309, 1], "mesh" : 0, "name" : "Sphere"}, {"matrix" : [4.7756733894348145, 0, 0, 0, 0, 4.7756733894348145, 0, 0, 0, 0, 4.7756733894348145, 0, -6.074845314025879, 7.270196914672852, 4.792943477630615, 1], "mesh" : 1, "name" : "Sphere.001"}, {"mesh" : 2, "name" : "Text"}], "samplers" : [{"magFilter" : 9729, "minFilter" : 9987, "wrapS" : 10497, "wrapT" : 10497}, {"magFilter" : 9729, "minFilter" : 9987, "wrapS" : 10497, "wrapT" : 10497}], "scene" : 0, "scenes" : [{"nodes" : [0, 1, 2]}], "textures" : [{"sampler" : 0, "source" : 0, "name" : ""}, {"sampler" : 1, "source" : 1, "name" : ""}]}